<svg xmlns="http://www.w3.org/2000/svg" xmlns:xlink="http://www.w3.org/1999/xlink" width="459.875" height="46.67" viewBox="0 0 459.875 46.67">
  <defs>
    <linearGradient id="linear-gradient" x1="0.963" y1="0.11" x2="0.102" y2="0.584" gradientUnits="objectBoundingBox">
      <stop offset="0" stop-color="#032726"/>
      <stop offset="1" stop-color="#0a5454"/>
    </linearGradient>
    <linearGradient id="linear-gradient-2" x1="0.259" y1="0.106" x2="0.603" y2="0.963" xlink:href="#linear-gradient"/>
    <linearGradient id="linear-gradient-3" x1="0.007" y1="0.281" x2="1.203" y2="1.25" gradientUnits="objectBoundingBox">
      <stop offset="0" stop-color="#ec411b"/>
      <stop offset="1" stop-color="#f77e0b"/>
    </linearGradient>
    <linearGradient id="linear-gradient-4" x1="0.327" y1="-0.02" x2="0.823" y2="0.937" xlink:href="#linear-gradient-3"/>
    <linearGradient id="linear-gradient-5" x1="0" y1="0.5" x2="1" y2="0.5" xlink:href="#linear-gradient-3"/>
    <linearGradient id="linear-gradient-8" x1="0.778" y1="0.082" x2="0.35" y2="0.977" gradientUnits="objectBoundingBox">
      <stop offset="0.177" stop-color="#ec411b"/>
      <stop offset="1" stop-color="#f77e0b"/>
    </linearGradient>
  </defs>
  <g id="Group_412" data-name="Group 412" transform="translate(-237.217 -370.381)">
    <path id="Path_1" data-name="Path 1" d="M565.286,379.98l-7.742,6.184a10.876,10.876,0,0,0-9.872-5.267,14.162,14.162,0,0,0-7.567,2.021,14.394,14.394,0,0,0-1.4.981,20.07,20.07,0,0,0-16.483,19.461,18,18,0,0,0,.266,3.124,19.5,19.5,0,0,1-2.1-9.191,27.262,27.262,0,0,1,3.544-13.825,25.042,25.042,0,0,1,9.97-9.611,30.228,30.228,0,0,1,14.6-3.456,26.028,26.028,0,0,1,11.033,2.2,16.243,16.243,0,0,1,6.08,4.655,1.946,1.946,0,0,1-.325,2.722Z" transform="translate(-3.463 0.006)" fill="url(#linear-gradient)"/>
    <path id="Path_2" data-name="Path 2" d="M597.885,407.437H578.791l-5.19,8.712H560.212l28.134-43.868a2.148,2.148,0,0,1,1.808-.986h11.318L612.3,416.146H599.679Zm-1.922-9.356-3.012-14.543-8.585,14.543Z" transform="translate(-3.953 0)" fill="#032726"/>
    <path id="Path_3" data-name="Path 3" d="M657.621,396.214a18.554,18.554,0,0,1-9.162,6.5l7.625,13.455H642.823l-6.662-11.919h-6.407l-2.372,11.919H614.7l8.97-44.851h19.156a20.886,20.886,0,0,1,13.328,3.781,12.687,12.687,0,0,1,4.74,10.507,17.422,17.422,0,0,1-3.272,10.605Zm-11.4-13.519a8.556,8.556,0,0,0-5.19-1.38h-6.655l-2.7,13.147h7.558a9.715,9.715,0,0,0,6.535-1.986,7.043,7.043,0,0,0,2.3-5.639,4.815,4.815,0,0,0-1.856-4.142Z" transform="translate(-4.615 -0.023)" fill="#032726"/>
    <path id="Path_4" data-name="Path 4" d="M666.877,415.7a27.3,27.3,0,0,1-8.138-3.456l5-9.483a27.706,27.706,0,0,0,7.24,3.3,27.323,27.323,0,0,0,7.689,1.119,12.412,12.412,0,0,0,5.671-1.064,3.225,3.225,0,0,0,2.018-2.924,2.757,2.757,0,0,0-1.824-2.5,33.261,33.261,0,0,0-5.671-1.922,59.316,59.316,0,0,1-7.24-2.34,12.918,12.918,0,0,1-4.966-3.621,9.51,9.51,0,0,1-2.082-6.4,13.957,13.957,0,0,1,2.63-8.425,16.818,16.818,0,0,1,7.5-5.607,30.087,30.087,0,0,1,11.4-1.986,38.57,38.57,0,0,1,8.97.994,24.277,24.277,0,0,1,7.178,2.85l-4.613,9.417a21.194,21.194,0,0,0-5.8-2.531,24.594,24.594,0,0,0-6.5-.864,12.084,12.084,0,0,0-5.926,1.218,3.586,3.586,0,0,0-2.148,3.137,2.8,2.8,0,0,0,1.861,2.563,34,34,0,0,0,5.764,1.922,55.977,55.977,0,0,1,7.208,2.244,12.687,12.687,0,0,1,4.9,3.523,9.165,9.165,0,0,1,2.05,6.216,13.759,13.759,0,0,1-2.658,8.361,17.032,17.032,0,0,1-7.561,5.6,30.115,30.115,0,0,1-11.371,1.986A40.577,40.577,0,0,1,666.877,415.7Z" transform="translate(-5.158 0)" fill="#032726"/>
    <path id="Path_5" data-name="Path 5" d="M562.612,408.869a21.171,21.171,0,0,1-8.508,6.368,29.778,29.778,0,0,1-11.153,1.962,27.17,27.17,0,0,1-11.913-2.462,18.212,18.212,0,0,1-8.507-8.04l-.016-.05a17.962,17.962,0,0,1-.266-3.124,20.072,20.072,0,0,1,16.484-19.461,13.941,13.941,0,0,0-3.685,4.6,17.107,17.107,0,0,0-1.821,7.976,9.572,9.572,0,0,0,2.943,7.309,11.3,11.3,0,0,0,8.008,2.744,13.778,13.778,0,0,0,9.888-4.07,1.627,1.627,0,0,1,2.257.056Z" transform="translate(-3.487 -0.154)" fill="url(#linear-gradient-2)"/>
    <path id="Path_6" data-name="Path 6" d="M267.462,406.46h-8.67l-2.023,10.1H276.05a18.079,18.079,0,0,1-8.588-10.1Z" transform="translate(-0.24 -0.43)" fill="url(#linear-gradient-3)"/>
    <path id="Path_7" data-name="Path 7" d="M307.8,390.138a25.932,25.932,0,0,1-3.565,13.716,22.792,22.792,0,0,1-3.743,4.724,17.98,17.98,0,0,0-8.149-24.529l-.019-.019a1.2,1.2,0,0,0-.162-.141,12.211,12.211,0,0,0-8.268-2.462H263.8l1.561-7.87a2.826,2.826,0,0,1,2.762-2.263H285.3a28.9,28.9,0,0,1,11.964,2.284,17.446,17.446,0,0,1,7.79,6.527,18.182,18.182,0,0,1,2.741,10.031Z" transform="translate(-0.332 -0.004)" fill="url(#linear-gradient-4)"/>
    <path id="Path_8" data-name="Path 8" d="M359.978,371.3l-8.97,44.851H338.32l3.456-17.427H324.541l-3.456,17.427H308.4l8.582-42.916a2.409,2.409,0,0,1,2.361-1.936h10.712l-3.331,16.789h17.236l3.331-16.789Z" transform="translate(-0.867 0.008)" fill="#032726"/>
    <path id="Path_9" data-name="Path 9" d="M390.958,407.435H371.864l-5.19,8.712H353.285L382.051,371.3h12.5l10.829,44.851H392.753Zm-1.922-9.356-3.01-14.543-8.585,14.543Z" transform="translate(-1.42 0.001)" fill="#032726"/>
    <path id="Path_10" data-name="Path 10" d="M437.691,391.924l15.059,24.218H438.59L428.274,400l-5.83,5.254-2.177,10.9h-12.5l8.97-44.851h12.5l-3.653,18.326L445.829,371.3h14.926Z" transform="translate(-2.087 0.005)" fill="#032726"/>
    <path id="Path_11" data-name="Path 11" d="M484.693,407.435h-19.1l-5.19,8.712H447.012L475.778,371.3h12.5L499.1,416.147H486.487Zm-1.922-9.356-3.012-14.543-8.585,14.543Z" transform="translate(-2.573 0.001)" fill="#032726"/>
    <rect id="Rectangle_1" data-name="Rectangle 1" width="20.187" height="4.706" rx="0.221" transform="translate(248.168 385.59)" fill="url(#linear-gradient-5)"/>
    <rect id="Rectangle_2" data-name="Rectangle 2" width="23.127" height="4.706" rx="0.221" transform="translate(244.701 391.426)" fill="url(#linear-gradient-5)"/>
    <rect id="Rectangle_3" data-name="Rectangle 3" width="30.787" height="4.706" rx="0.221" transform="translate(237.217 397.137)" fill="url(#linear-gradient-5)"/>
    <path id="Path_12" data-name="Path 12" d="M302.573,400.409a17.925,17.925,0,0,1-2.042,8.329,23.9,23.9,0,0,1-6.147,4.365,31.733,31.733,0,0,1-14.556,3.191h-3.645a18.079,18.079,0,0,1-8.59-10.1h12.634a15.615,15.615,0,0,0,7.976-1.962,12.684,12.684,0,0,0,5.086-5.386,16.9,16.9,0,0,0,1.741-7.79,8.9,8.9,0,0,0-2.643-6.849,17.983,17.983,0,0,1,10.185,16.2Z" transform="translate(-0.373 -0.154)" fill="url(#linear-gradient-8)"/>
  </g>
</svg>
